<?xml version="1.0" standalone="no"?>
<!DOCTYPE svg PUBLIC "-//W3C//DTD SVG 20010904//EN"
 "http://www.w3.org/TR/2001/REC-SVG-20010904/DTD/svg10.dtd">
<svg version="1.0" xmlns="http://www.w3.org/2000/svg"
 width="70.000000pt" height="70.000000pt" viewBox="0 0 70.000000 70.000000"
 preserveAspectRatio="xMidYMid meet">

<g transform="translate(0.000000,70.000000) scale(0.100000,-0.100000)"
 stroke="none">
<path d="M0 350 c0 -379 3 -398 48 -299 17 35 38 61 73 86 27 19 47 39 44 43
-3 5 3 10 12 12 27 5 60 -66 62 -133 1 -14 8 -34 17 -45 14 -18 15 -15 11 33
l-4 52 30 -16 c30 -15 101 -14 155 2 17 6 22 3 22 -11 0 -16 2 -17 10 -4 6 10
6 16 -1 18 -5 2 2 15 16 27 14 13 25 33 25 45 0 24 3 24 40 5 16 -8 35 -13 42
-10 8 3 22 -2 33 -10 19 -15 19 -16 -3 -5 -13 7 -26 9 -29 7 -3 -3 10 -13 29
-22 18 -10 41 -24 51 -33 16 -14 17 -1 17 259 l0 274 -79 -79 -79 -79 -16 31
c-9 17 -30 42 -48 57 -20 16 -24 22 -10 15 26 -13 35 -8 103 56 88 81 111 74
-250 74 l-321 0 0 -350z m59 334 c27 -6 40 -20 86 -98 55 -90 72 -100 35 -18
-10 23 -17 42 -15 42 2 0 26 -24 54 -52 l51 -53 19 22 c31 37 31 14 0 -32 -16
-23 -29 -52 -29 -63 0 -49 -11 -51 -48 -9 -21 23 -44 51 -52 61 -13 18 -13 19
0 11 9 -5 8 0 -4 14 -12 13 -22 17 -26 11 -3 -6 -19 4 -36 22 -16 18 -22 27
-14 21 26 -23 34 -13 10 12 -13 14 -19 25 -13 25 6 0 13 9 16 20 4 16 -4 24
-39 39 -62 28 -60 38 5 25z m291 -101 c-8 -3 -22 -11 -30 -17 -13 -10 -13 -9
-1 7 7 9 21 17 30 16 13 0 14 -1 1 -6z m47 1 c-3 -3 -12 -4 -19 -1 -8 3 -5 6
6 6 11 1 17 -2 13 -5z m123 -186 c0 -11 -5 -15 -13 -12 -8 3 -20 -2 -27 -11
-9 -11 -9 -15 0 -15 6 0 10 -8 8 -17 -2 -10 3 -24 12 -31 13 -12 12 -13 -9 -8
-17 3 -29 -2 -43 -20 -11 -13 -24 -24 -31 -24 -6 0 -4 6 5 13 8 6 23 39 33 72
10 33 23 70 28 82 9 21 11 21 23 5 7 -9 14 -25 14 -34z m-173 -81 c4 -6 -2 -8
-18 -4 -13 4 -30 7 -37 7 -7 0 -11 4 -8 9 7 11 54 2 63 -12z m-98 -62 c-5 -5
-9 -1 -9 13 0 12 -5 22 -10 22 -6 0 -5 8 2 20 12 19 13 19 20 -12 4 -18 2 -37
-3 -43z m61 45 c0 -5 -7 -7 -15 -4 -8 4 -15 8 -15 10 0 2 7 4 15 4 8 0 15 -4
15 -10z m180 -19 c5 7 8 -5 7 -29 -2 -46 -16 -58 -18 -14 l-1 27 -7 -25 c-4
-14 -4 -27 -1 -30 4 -3 7 -18 6 -35 -1 -24 -8 -34 -36 -47 -19 -10 -54 -18
-78 -18 -41 0 -43 1 -26 17 10 10 26 22 37 28 29 15 65 67 50 72 -7 3 1 16 20
33 18 16 34 24 36 18 2 -6 6 -5 11 3z m-261 -101 c11 -24 11 -24 -3 -6 -9 11
-16 24 -16 30 0 12 5 7 19 -24z m-99 16 c0 -2 -7 -7 -16 -10 -8 -3 -12 -2 -9
4 6 10 25 14 25 6z m380 -29 c0 -26 -45 -64 -91 -77 -43 -13 -35 -4 17 19 32
15 49 29 57 51 14 36 17 37 17 7z m-229 -54 c13 -17 13 -17 -6 -3 -11 8 -22
16 -24 17 -2 2 0 3 6 3 6 0 17 -8 24 -17z"/>
<path d="M642 645 c-29 -26 -52 -51 -52 -57 0 -6 15 3 33 18 18 16 43 36 56
45 13 8 22 21 20 28 -3 8 -23 -4 -57 -34z"/>
<path d="M452 25 c-6 -14 -8 -25 -3 -25 8 0 23 41 17 47 -1 2 -8 -8 -14 -22z"/>
</g>
</svg>
